<svg width="14" height="16" viewBox="0 0 14 16" fill="none" xmlns="http://www.w3.org/2000/svg">
<path d="M1.82667 2.98438H1.84375H12.1562H12.1733L12.1718 3.00139L11.1406 14.545L11.1406 14.5451C11.1299 14.6736 11.0713 14.7934 10.9763 14.8805C10.8814 14.9678 10.757 15.016 10.6281 15.0156L1.82667 2.98438ZM1.82667 2.98438L1.82819 3.00139L2.85943 14.545C2.85943 14.5451 2.85943 14.5451 2.85943 14.5451L1.82667 2.98438ZM10.4875 2.00938L10.4792 2.01562H10.5H13.75C13.8122 2.01562 13.8718 2.04032 13.9157 2.08427C13.9597 2.12823 13.9844 2.18784 13.9844 2.25V2.75C13.9844 2.81216 13.9597 2.87177 13.9157 2.91573C13.8718 2.95968 13.8122 2.98438 13.75 2.98438H13.1594H13.1451L13.1438 2.99861L12.1063 14.633C12.0731 15.0021 11.903 15.3455 11.6295 15.5955C11.3559 15.8456 10.9987 15.9843 10.6281 15.9844H3.37188C3.00125 15.9843 2.64406 15.8456 2.37052 15.5955C2.09698 15.3455 1.92689 15.0021 1.89369 14.633L0.856188 2.99861L0.854919 2.98438H0.840625H0.25C0.18784 2.98438 0.128226 2.95968 0.0842718 2.91573C0.040318 2.87177 0.015625 2.81216 0.015625 2.75V2.25C0.015625 2.18784 0.040318 2.12823 0.0842718 2.08427C0.128226 2.04032 0.18784 2.01562 0.25 2.01562H3.5V2.02604L3.5125 2.00938L4.5625 0.609375C4.70077 0.425021 4.88005 0.275391 5.08617 0.172335C5.29228 0.0692779 5.51956 0.015625 5.75 0.015625H8.25C8.48044 0.015625 8.70772 0.0692779 8.91383 0.172335C9.11995 0.275391 9.29923 0.425021 9.4375 0.609375L10.4875 2.00938ZM5.33753 1.19059L5.3375 1.19063L4.7375 1.99063L4.71875 2.01562H4.75H9.25H9.28125L9.2625 1.99063L8.6625 1.19062L8.66247 1.19059C8.61428 1.12674 8.55198 1.07491 8.48043 1.03914C8.40889 1.00337 8.33004 0.984623 8.25005 0.984375H8.25L5.75 0.984375L5.74995 0.984375C5.66996 0.984623 5.59111 1.00337 5.51957 1.03914C5.44802 1.07491 5.38572 1.12674 5.33753 1.19059Z" fill="#6A6A65" stroke="#6A6A65" stroke-width="0.03125"/>
</svg>
